<svg width="25" height="24" viewBox="0 0 25 24" fill="none" xmlns="http://www.w3.org/2000/svg">
<path d="M12.5021 18.1818L6.66122 12.3409C6.19531 11.875 5.88471 11.3333 5.7294 10.7159C5.57789 10.0985 5.57978 9.48485 5.73509 8.875C5.89039 8.26136 6.1991 7.72727 6.66122 7.27273C7.13471 6.80682 7.67448 6.49811 8.28054 6.34659C8.89039 6.19129 9.49834 6.19129 10.1044 6.34659C10.7143 6.50189 11.2559 6.81061 11.7294 7.27273L12.5021 8.02273L13.2749 7.27273C13.7521 6.81061 14.2938 6.50189 14.8999 6.34659C15.5059 6.19129 16.112 6.19129 16.718 6.34659C17.3279 6.49811 17.8696 6.80682 18.343 7.27273C18.8052 7.72727 19.1139 8.26136 19.2692 8.875C19.4245 9.48485 19.4245 10.0985 19.2692 10.7159C19.1177 11.3333 18.8089 11.875 18.343 12.3409L12.5021 18.1818Z" fill="black" fill-opacity="0.8"/>
<rect x="0.5" y="0.5" width="24" height="23" rx="11.5" stroke="white"/>
</svg>
